<mxfile host="app.diagrams.net" modified="2022-02-25T10:45:23.836Z" agent="5.0 (Windows NT 10.0; Win64; x64) AppleWebKit/537.36 (KHTML, like Gecko) Chrome/98.0.4758.102 Safari/537.36" etag="fBtIloTRNFBq2wsyrezo" version="16.6.4" type="github">
  <diagram id="hGlyHV4d9RlNCeVSB2sn" name="第 1 页">
    <mxGraphModel dx="1110" dy="413" grid="1" gridSize="10" guides="1" tooltips="1" connect="1" arrows="1" fold="1" page="1" pageScale="1" pageWidth="827" pageHeight="1169" math="0" shadow="0">
      <root>
        <mxCell id="0" />
        <mxCell id="1" parent="0" />
        <mxCell id="y0BD9BB1DwmOeeI3N5hk-3" value="" style="rounded=1;whiteSpace=wrap;html=1;" vertex="1" parent="1">
          <mxGeometry x="90" y="130" width="80" height="40" as="geometry" />
        </mxCell>
        <mxCell id="y0BD9BB1DwmOeeI3N5hk-4" value="" style="rounded=1;whiteSpace=wrap;html=1;" vertex="1" parent="1">
          <mxGeometry x="90" y="200" width="80" height="40" as="geometry" />
        </mxCell>
        <mxCell id="y0BD9BB1DwmOeeI3N5hk-5" value="" style="shape=image;verticalLabelPosition=bottom;labelBackgroundColor=default;verticalAlign=top;aspect=fixed;imageAspect=0;image=data:image/png,iVBORw0KGgoAAAANSUhEUgAAAMEAAAAkCAYAAAAwy16tAAAAAXNSR0IArs4c6QAAAARnQU1BAACxjwv8YQUAAAAJcEhZcwAADsMAAA7DAcdvqGQAAA0jSURBVHhe7VxtTxzXFe4PaJumalPlQxu1UvsJqS+orVJFUb7xoYobB+OkxlUIboqJaUOoDG4r0zg2TVRqahG7lEjI1HaIHYxNTNjYgdTGDjEOy0uWFy9ZLy9hw2Le2V0vy7Lw9Nw7d2YuyywLLNiLO490hHdm9s6de89zz3POnfWXsE5YIJudn8d0MISRwBym6G+APrPjJkzEM9aFBIHQPPp9AZwfnMBrXS7ktQ2goNOFyoFxODwzuDNnksFE/CJmEsyTd39Gjl7Q+QV+erED3zpnxdfONuOhcy34ocWGXCJE85gXs0QUkwgm4hExkYARgMmeUsdt/OT9DnyjqgVfrWzGV8jY36+fteL7Ne3Y09yH5nEfZkwimIhDxESCuYUF3KIosKvJiYcEAb4sGScDRYUfvNeOLGsfWid88JnSyEScISYSzFIouEFS55dX7CSBrNzpZRKo9gAR4XsX2pBFEaFp1Isgfc8kgol4QUwkYM7MVvdfXe3Bg8uQgB1/kEUEkkbZLf2wTfp5Mm3CRDxg1SRgK/gCyaAQESBA0qbXG0DmJ314mBJhJn2MSKAaiwg/ptzhjZ5hXkY1YSIesGoSzJPze32z6HdNwT3qwxQ581t9Y3jsgy5KjK2Gzi/bt6tb8TzlED3TM6YkMhEXWDUJgsF5dDnGcOxEC46ftaGnbwLdYz4csbvx80sd+Oa55Ynw8PlWbL/mQMfkHQTm5zAR9GMmNGcSwsQ9w6pJMEMrf2OLCy8fqkd6ngWlFW3oco7BOe1H0c0hTgSm/yPlB995tw0ZN3rR4/FjKODBpREHOj23iRAhIoJJhagYsSDz8aeQQFZoE8f+nxCaRFP1URSW1cHpF8dixJpI8JHVhZdercO2rGqk51pQ8lYbblJEcE75Se+78bOLFBEMpNEDlDyz/QS2rzDo9+PGxOfY130RRc6PYJseFkS4BwjZUbpdcayEx/ejdkocj0fcExIMo2qvOj6ypeCJ9AxkHz6FKhvNX0hcvpHoKkWiuH/mpUlxMDaskQSD+AOR4OnM83j6xfN44c8X8ebpdk4EJo0OU0T4xQedPEdgEYEZK6F+l6IA2zhrnfDipmcMpf03sKPlDNLbqlB46xo6PMO4EwqKO909BJqLtIHlg2sZFmfiEHFFgsWWmP466tziKxsFvw3F6SlIeJIWq3W6V0wk2Jp5Dk/tPseJ8HxuLScCk0a9QhqxiMB2jdkm2iPVbdjV1It69xRcfi8qv+jA7k/fxdPNFdx+01qJfxARbNNuhBbuZvk0iKYjNKg0ifmvva5M6O5quMTZuMM9JsGiBcLvw+iAFVUlOXhU9CkhKQ+1I+L8JsG6kID9Td5zHr/90/sooRyh89YYOka9XBo9VteFH1ls+B3lAZdvT8HumUS1uxt/7LJgu/U0J8BWsmSyNIoI/6Lo0O+fRHDhbsRWgrcBuXwCD6Ju5DoK+L8zUDEgzscb4okEEgK2UmwR/Uo8fB0BcXwzYF1IoBqLCLv2WfDm2ySNesfRNz2Dslu3uTxquD2Nz/0eXBi+iZc7a/EMEYA5v2yMEC/aLqBm2A7v3Ky448bCU7+fT1zCgQZ4KCpcPaxMZNJJu7hCQpgDBnotKNiTqkippFSkHqpEu1dcqyLkg7OxEgV/ycATScp3E55MQ3ZJhMQuNIx2y1Fkp4t2ue7ej1KbTzkf1gePQ+oDa7fcilGj9cPvRG3JfqQkK1FP7UN3eH8NEZ0EDN3lqUrbBnmVx1GHwrAx2HXoFJqWRA0bCnkbyr08XaeQyftMEWacTkdaBGicu+uPI1cdC7JHd+Ygt35QXBAZ60oCZtsoIrCqUVmlDb2uKYz6g3DPzGLgjgfnh7qRQwRIsb6tRYBwS215B3+/dRXugEfccSMxidp8ZcByLytOFmgq4p8Tth9Hd7gzSRNQUCZWPnL+J55UjnHbWYp22blphVTOpWDLCxlI0ZybbHclnPI9VL2rnmcEEE6rOZ/Uh/wSpQ+Jyam6HCHbEk5gdwPydyrnEpOpD9SPLWqfw/triJWRAAOVSBF9KGwVx+BDe1mG/szSM3FLykCxSnAOiQT0fOqzMhJUMcIYkoDuUZImrlOSdfaMnHAl0cPlupNgKyXLKVnVyP/nNbR0unFnNohB/zSXQCwCPEuJsJHzq/ZrOr/fXkdR4y6UaFzVSOUDR1JIXRFnVUmUslRuSBOQ8HgaChp1h/A4KpEpVrmkcskJuyqRb3HCIzt77ylxX/kew6jdp67S+1FhlyofIw2oahSfw/pQ2CocKDSIKvX7SeTY2v1UB05BZo20KlLEUa9f1F9DrJAE2tjp17FFRSFAGvJpVdYqSF4nKtT+bqf+aoFfJwHv81n74rEzIoFGvgyUO8QxBnrGq81O8SEy1p0ELDdI21vL9w8cAxNwUwRQCcAigJHjy7aj9R0c+uwy30PYaLiqs5TB5lJIhS6JEo+EaVtpAlLOLB1c55kMpT0WRcQxY5BTvaS0ozmV4ziSeNtpKJUnMhxSH5Y4b+tR5f7qqslgF+2+QFFHHNKgXr+S/q6EBGFSRv5eEq3IS/KEqTpki+sLmtSqoEQCowKFEQm0sSMS9Ipjq8D65gQUBZ7PteDYiVZ0OUYw5KUIMNQlSaDlScAk0q72czg12I7J4Iy440ZB3xtQpZAKTRIlFaFJTk2MJkCGJn1oZROHOKacaK+vRHFZEbKZJJLkgOpUo5Y85ZiRs8pYrg/aOZ0Erpoc7V6RLay/S7BCEozrfeM1/JBVc2hdHsnQ2005q0YpnQT6MQlGz8/2eYTcY/I0s8SCdvfKS+3rQoKtLAJQUsxygeL/WPFpz204JydwwX2TEyCaBGKWTARJpSjwN8cVXiZlr1RsKNQVMootIsgaSOC6tF8qH6aSVqVk7ehRZAoCqk7VXiKu2WvBKD8SAaskgdbu9jyexxQbWkOUkvAKSUDPr0ifVCWaRRsvqV1du4dHkzBEanPcitIcfXHhucG+U0sLFQZYFxKwqtBzJIGOnWyBjQgw5GNJcBeyVyiBWARguUC+vR5Xx/vgDwU3/BWK9hJ5wJax/DpdKkWZVC2CqCTQwj1p92Z5d3OpU3WfFJWVl6LsUaySBM6zQqJFa3dZrIQEPpKRqsYXRQUpR4gWCXbVqO2ukQQCAbcNVSV5ehVqBXs+MZOASSBWFj12shXdt8bQNzXJCZDTuXgfIJKx8ztbK/GK/UM0jg9gimTQhr9DxCZHDFJ2vfHWu+7Qkr6WJmDp9/RNNy3HiCSPQjTR4v7qRC+633I7oaskgd5uLK+DRCeBqyZPRIEU0vdq9BxExW7le8vnBHKBIDYSaOgqFZFemr8IiIkE2/ZUUwR4j0ugTsco3BQBaoftPAIY7QOEWzJFiR2tZ/BKTz0+Gu/nr0zML2z820P6axLLDJC0iqVWC20qTQDbGa2SlpjRxiKxWURO0Cz0qEaCLD1hC/nQpJXzpImWde3OIlyVNG3AbVwdWgkJZMIn7jm+WB6EJtFteR3lXeJzREQggd8Hl70Opfv0PY2UssXO7rl8MHp1aFGpeA0k6KXxcYTldZT0KySQKn8RsCYSNFpdyD5YjzQiwNETTAKNcALUUA7AdoKVJNjY8VVj53e0vMMJcI0kkC80e1cIwMJ23QFlEJfX33qVSAup0gRk7lNWvkd3SjV3si2Hr+vySXJA5iBsn4Bdm7ivFIXh1SEGN7WvXU8m7UFo162WBAR5N5f1Q6mjp2m5yrIrKodOgoiWlMFLwUtW+0U1fGZh+wRL3gFaAwnEYqPugch7MVvCSGmEVZMgGAyhs2cUR443o/TtNpJAo+ifnETNsEKAlSTBjADsXaEDPR/yCMAqQXft5/dSWU5b4SNAlxJGiZ4PTksRUsWEJiZnoSB8P4DB1YBCdaXklQu2U7yMvKAVMnxnl+2sapFhDSTgGLGi/FCWrpVZkp5zEOWNg0v7vAQRSCDaKLbY4IqywT/afAq5OTrx+G5uRQOcS1bpNZBg5DqKD+VIixEtOOzZmg2+b4BVk4D9smzaG4CjbwKDbg88gQCujPVib/dFngMYOb1srArE3hx9tee/+HhigEugTfM7guUc0MSmxapJwBQLky2h0AJm50IYmvHgjb4mLm2Ygxs5vmpqEnyACHBjYhD+0NzdiwDrAZME9yVWTQIZcwvzcPjG8Ff7h9gWpRTKkmAmgQo+u8IjgGcusHkigAqTBPclYiZBj3eU1/eXiwJqEsxeh7gxOYiZefab4k1GAAaTBPclYiJBiGQRe9uzuPdjPGs9Y1gRUpNgthPcNj3Eq0Cb0P0VmCS4LxETCdhqznZ32Y/lf99Rg2ckIrC/TCKxHOA1RwNapr7YvBHAxH2NmEjAwFyaJcenXTZk2YgILaf5r8QYAZ5rO8t/O2wSwEQ8I2YSMATnQxgOeHFtrB8nBtvwRt91/Lv/E/4KNcsZFAlkEsBEfGJdSMDA/mvGWSIDq/qMzd7hG2BsD4DlDSZMxDPWjQQmTGxOAP8D5ApECWP+2wgAAAAASUVORK5CYII=;" vertex="1" parent="1">
          <mxGeometry x="400" y="170" width="145.78" height="27.19" as="geometry" />
        </mxCell>
      </root>
    </mxGraphModel>
  </diagram>
</mxfile>
